<mxfile host="Electron" modified="2023-08-31T18:10:49.418Z" agent="Mozilla/5.0 (X11; Linux x86_64) AppleWebKit/537.36 (KHTML, like Gecko) draw.io/21.6.8 Chrome/114.0.5735.289 Electron/25.5.0 Safari/537.36" etag="0paGRiurYMpmmAOFshG1" version="21.6.8" type="device">
  <diagram id="R2lEEEUBdFMjLlhIrx00" name="Page-1">
    <mxGraphModel dx="800" dy="465" grid="1" gridSize="10" guides="1" tooltips="1" connect="1" arrows="1" fold="1" page="1" pageScale="1" pageWidth="850" pageHeight="1100" math="0" shadow="0" extFonts="Permanent Marker^https://fonts.googleapis.com/css?family=Permanent+Marker">
      <root>
        <mxCell id="0" />
        <mxCell id="1" parent="0" />
        <mxCell id="3fR_952DXuG7MiVSAHf1-1" value="Student" style="rounded=0;whiteSpace=wrap;html=1;" parent="1" vertex="1">
          <mxGeometry x="590" y="165" width="80" height="30" as="geometry" />
        </mxCell>
        <mxCell id="3fR_952DXuG7MiVSAHf1-2" value="system_admin" style="rounded=0;whiteSpace=wrap;html=1;" parent="1" vertex="1">
          <mxGeometry x="170" y="165" width="80" height="30" as="geometry" />
        </mxCell>
        <mxCell id="3fR_952DXuG7MiVSAHf1-3" value="personal_details" style="rounded=0;whiteSpace=wrap;html=1;" parent="1" vertex="1">
          <mxGeometry x="370" y="365" width="90" height="40" as="geometry" />
        </mxCell>
        <mxCell id="3fR_952DXuG7MiVSAHf1-4" value="post" style="rounded=0;whiteSpace=wrap;html=1;" parent="1" vertex="1">
          <mxGeometry x="600" y="730" width="60" height="20" as="geometry" />
        </mxCell>
        <mxCell id="3fR_952DXuG7MiVSAHf1-5" value="comment" style="rounded=0;whiteSpace=wrap;html=1;" parent="1" vertex="1">
          <mxGeometry x="120" y="745" width="90" height="30" as="geometry" />
        </mxCell>
        <mxCell id="3fR_952DXuG7MiVSAHf1-11" value="SytesmAdmin_username" style="ellipse;whiteSpace=wrap;html=1;" parent="1" vertex="1">
          <mxGeometry x="200" y="85" width="140" height="40" as="geometry" />
        </mxCell>
        <mxCell id="3fR_952DXuG7MiVSAHf1-12" value="" style="endArrow=none;html=1;rounded=0;exitX=0.5;exitY=1;exitDx=0;exitDy=0;entryX=0.25;entryY=0;entryDx=0;entryDy=0;" parent="1" source="3fR_952DXuG7MiVSAHf1-32" target="3fR_952DXuG7MiVSAHf1-2" edge="1">
          <mxGeometry relative="1" as="geometry">
            <mxPoint x="130" y="90" as="sourcePoint" />
            <mxPoint x="250" y="125" as="targetPoint" />
          </mxGeometry>
        </mxCell>
        <mxCell id="3fR_952DXuG7MiVSAHf1-13" value="" style="endArrow=none;html=1;rounded=0;entryX=0.5;entryY=1;entryDx=0;entryDy=0;exitX=0.75;exitY=0;exitDx=0;exitDy=0;" parent="1" source="3fR_952DXuG7MiVSAHf1-2" target="3fR_952DXuG7MiVSAHf1-11" edge="1">
          <mxGeometry relative="1" as="geometry">
            <mxPoint x="210" y="145" as="sourcePoint" />
            <mxPoint x="370" y="145" as="targetPoint" />
          </mxGeometry>
        </mxCell>
        <mxCell id="3fR_952DXuG7MiVSAHf1-15" value="" style="endArrow=none;html=1;rounded=0;entryX=0.5;entryY=1;entryDx=0;entryDy=0;exitX=0.25;exitY=0;exitDx=0;exitDy=0;" parent="1" source="3fR_952DXuG7MiVSAHf1-1" target="3fR_952DXuG7MiVSAHf1-33" edge="1">
          <mxGeometry relative="1" as="geometry">
            <mxPoint x="470" y="125" as="sourcePoint" />
            <mxPoint x="595" y="120" as="targetPoint" />
          </mxGeometry>
        </mxCell>
        <mxCell id="3fR_952DXuG7MiVSAHf1-20" value="lname" style="ellipse;whiteSpace=wrap;html=1;align=center;rotation=20;" parent="1" vertex="1">
          <mxGeometry x="260" y="415" width="60" height="20" as="geometry" />
        </mxCell>
        <mxCell id="3fR_952DXuG7MiVSAHf1-21" value="mname" style="ellipse;whiteSpace=wrap;html=1;align=center;" parent="1" vertex="1">
          <mxGeometry x="270" y="335" width="50" height="30" as="geometry" />
        </mxCell>
        <mxCell id="3fR_952DXuG7MiVSAHf1-22" value="profilepicture" style="ellipse;whiteSpace=wrap;html=1;align=center;rotation=-45;" parent="1" vertex="1">
          <mxGeometry x="492.49999999999994" y="426.9" width="72.5" height="26.29" as="geometry" />
        </mxCell>
        <mxCell id="3fR_952DXuG7MiVSAHf1-23" value="phone_number" style="ellipse;whiteSpace=wrap;html=1;align=center;rotation=0;" parent="1" vertex="1">
          <mxGeometry x="319.99999999999994" y="440" width="90" height="40" as="geometry" />
        </mxCell>
        <mxCell id="3fR_952DXuG7MiVSAHf1-25" value="fname" style="ellipse;whiteSpace=wrap;html=1;align=center;" parent="1" vertex="1">
          <mxGeometry x="310" y="295" width="60" height="30" as="geometry" />
        </mxCell>
        <mxCell id="3fR_952DXuG7MiVSAHf1-26" value="active" style="ellipse;whiteSpace=wrap;html=1;align=center;" parent="1" vertex="1">
          <mxGeometry x="506.25" y="360" width="45" height="20" as="geometry" />
        </mxCell>
        <mxCell id="3fR_952DXuG7MiVSAHf1-29" value="password" style="ellipse;whiteSpace=wrap;html=1;align=center;" parent="1" vertex="1">
          <mxGeometry x="422.5" y="458.71000000000004" width="70" height="21.29" as="geometry" />
        </mxCell>
        <mxCell id="3fR_952DXuG7MiVSAHf1-30" value="email" style="ellipse;whiteSpace=wrap;html=1;align=center;rotation=25;" parent="1" vertex="1">
          <mxGeometry x="485" y="335" width="45" height="15" as="geometry" />
        </mxCell>
        <mxCell id="3fR_952DXuG7MiVSAHf1-31" value="Personalid" style="ellipse;whiteSpace=wrap;html=1;align=center;fontStyle=4;" parent="1" vertex="1">
          <mxGeometry x="430" y="302.5" width="90" height="17.5" as="geometry" />
        </mxCell>
        <mxCell id="3fR_952DXuG7MiVSAHf1-32" value="SystemAdminId" style="ellipse;whiteSpace=wrap;html=1;align=center;fontStyle=4;" parent="1" vertex="1">
          <mxGeometry x="75" y="85" width="105" height="30" as="geometry" />
        </mxCell>
        <mxCell id="3fR_952DXuG7MiVSAHf1-33" value="registration_id" style="ellipse;whiteSpace=wrap;html=1;align=center;fontStyle=4;" parent="1" vertex="1">
          <mxGeometry x="612.5" y="87.5" width="97.5" height="25" as="geometry" />
        </mxCell>
        <mxCell id="3fR_952DXuG7MiVSAHf1-34" value="" style="endArrow=none;html=1;rounded=0;entryX=0.5;entryY=1;entryDx=0;entryDy=0;exitX=0.75;exitY=0;exitDx=0;exitDy=0;" parent="1" source="3fR_952DXuG7MiVSAHf1-3" target="3fR_952DXuG7MiVSAHf1-31" edge="1">
          <mxGeometry relative="1" as="geometry">
            <mxPoint x="470" y="305" as="sourcePoint" />
            <mxPoint x="520" y="335" as="targetPoint" />
          </mxGeometry>
        </mxCell>
        <mxCell id="3fR_952DXuG7MiVSAHf1-35" value="" style="endArrow=none;html=1;rounded=0;exitX=1;exitY=1;exitDx=0;exitDy=0;entryX=0.25;entryY=0;entryDx=0;entryDy=0;" parent="1" source="3fR_952DXuG7MiVSAHf1-25" target="3fR_952DXuG7MiVSAHf1-3" edge="1">
          <mxGeometry relative="1" as="geometry">
            <mxPoint x="320" y="335" as="sourcePoint" />
            <mxPoint x="480" y="335" as="targetPoint" />
          </mxGeometry>
        </mxCell>
        <mxCell id="3fR_952DXuG7MiVSAHf1-36" value="" style="endArrow=none;html=1;rounded=0;entryX=0.5;entryY=1;entryDx=0;entryDy=0;exitX=1;exitY=0;exitDx=0;exitDy=0;" parent="1" source="3fR_952DXuG7MiVSAHf1-3" target="3fR_952DXuG7MiVSAHf1-30" edge="1">
          <mxGeometry relative="1" as="geometry">
            <mxPoint x="460" y="375" as="sourcePoint" />
            <mxPoint x="550" y="335" as="targetPoint" />
          </mxGeometry>
        </mxCell>
        <mxCell id="3fR_952DXuG7MiVSAHf1-37" value="" style="endArrow=none;html=1;rounded=0;exitX=1;exitY=0.5;exitDx=0;exitDy=0;entryX=0;entryY=0.25;entryDx=0;entryDy=0;" parent="1" source="3fR_952DXuG7MiVSAHf1-21" target="3fR_952DXuG7MiVSAHf1-3" edge="1">
          <mxGeometry relative="1" as="geometry">
            <mxPoint x="310" y="415" as="sourcePoint" />
            <mxPoint x="470" y="415" as="targetPoint" />
          </mxGeometry>
        </mxCell>
        <mxCell id="3fR_952DXuG7MiVSAHf1-38" value="" style="endArrow=none;html=1;rounded=0;exitX=0.5;exitY=0;exitDx=0;exitDy=0;entryX=0;entryY=1;entryDx=0;entryDy=0;" parent="1" source="3fR_952DXuG7MiVSAHf1-20" target="3fR_952DXuG7MiVSAHf1-3" edge="1">
          <mxGeometry relative="1" as="geometry">
            <mxPoint x="280" y="435" as="sourcePoint" />
            <mxPoint x="440" y="435" as="targetPoint" />
          </mxGeometry>
        </mxCell>
        <mxCell id="3fR_952DXuG7MiVSAHf1-39" value="" style="endArrow=none;html=1;rounded=0;entryX=0.5;entryY=0;entryDx=0;entryDy=0;exitX=0.75;exitY=1;exitDx=0;exitDy=0;" parent="1" source="3fR_952DXuG7MiVSAHf1-3" target="3fR_952DXuG7MiVSAHf1-22" edge="1">
          <mxGeometry relative="1" as="geometry">
            <mxPoint x="370" y="434.79999999999995" as="sourcePoint" />
            <mxPoint x="530" y="434.79999999999995" as="targetPoint" />
          </mxGeometry>
        </mxCell>
        <mxCell id="3fR_952DXuG7MiVSAHf1-40" value="" style="endArrow=none;html=1;rounded=0;entryX=0.25;entryY=1;entryDx=0;entryDy=0;exitX=0.5;exitY=0;exitDx=0;exitDy=0;" parent="1" source="3fR_952DXuG7MiVSAHf1-23" target="3fR_952DXuG7MiVSAHf1-3" edge="1">
          <mxGeometry relative="1" as="geometry">
            <mxPoint x="290" y="424.83000000000004" as="sourcePoint" />
            <mxPoint x="450" y="424.83000000000004" as="targetPoint" />
          </mxGeometry>
        </mxCell>
        <mxCell id="3fR_952DXuG7MiVSAHf1-41" value="" style="endArrow=none;html=1;rounded=0;exitX=0.75;exitY=1;exitDx=0;exitDy=0;entryX=0.5;entryY=0;entryDx=0;entryDy=0;" parent="1" source="3fR_952DXuG7MiVSAHf1-3" target="3fR_952DXuG7MiVSAHf1-29" edge="1">
          <mxGeometry relative="1" as="geometry">
            <mxPoint x="370" y="434.65999999999997" as="sourcePoint" />
            <mxPoint x="530" y="434.65999999999997" as="targetPoint" />
          </mxGeometry>
        </mxCell>
        <mxCell id="3fR_952DXuG7MiVSAHf1-42" value="" style="endArrow=none;html=1;rounded=0;exitX=1;exitY=0.25;exitDx=0;exitDy=0;entryX=0;entryY=0.5;entryDx=0;entryDy=0;" parent="1" source="3fR_952DXuG7MiVSAHf1-3" target="3fR_952DXuG7MiVSAHf1-26" edge="1">
          <mxGeometry relative="1" as="geometry">
            <mxPoint x="490" y="405" as="sourcePoint" />
            <mxPoint x="650" y="405" as="targetPoint" />
          </mxGeometry>
        </mxCell>
        <mxCell id="3fR_952DXuG7MiVSAHf1-43" value="" style="endArrow=none;html=1;rounded=0;entryX=0.5;entryY=1;entryDx=0;entryDy=0;" parent="1" source="3fR_952DXuG7MiVSAHf1-4" target="3fR_952DXuG7MiVSAHf1-65" edge="1">
          <mxGeometry relative="1" as="geometry">
            <mxPoint x="400" y="739.43" as="sourcePoint" />
            <mxPoint x="560" y="739.43" as="targetPoint" />
          </mxGeometry>
        </mxCell>
        <mxCell id="3fR_952DXuG7MiVSAHf1-44" value="" style="endArrow=none;html=1;rounded=0;entryX=0.023;entryY=0.496;entryDx=0;entryDy=0;entryPerimeter=0;exitX=1.005;exitY=0.553;exitDx=0;exitDy=0;exitPerimeter=0;" parent="1" source="3fR_952DXuG7MiVSAHf1-4" target="3fR_952DXuG7MiVSAHf1-60" edge="1">
          <mxGeometry relative="1" as="geometry">
            <mxPoint x="500" y="784.41" as="sourcePoint" />
            <mxPoint x="660" y="784.41" as="targetPoint" />
          </mxGeometry>
        </mxCell>
        <mxCell id="3fR_952DXuG7MiVSAHf1-54" value="Postid" style="ellipse;whiteSpace=wrap;html=1;align=center;fontStyle=4;" parent="1" vertex="1">
          <mxGeometry x="720" y="640" width="40" height="20" as="geometry" />
        </mxCell>
        <mxCell id="3fR_952DXuG7MiVSAHf1-55" value="Attribute" style="ellipse;whiteSpace=wrap;html=1;align=center;" parent="1" vertex="1">
          <mxGeometry x="695" y="850" width="50" height="20" as="geometry" />
        </mxCell>
        <mxCell id="3fR_952DXuG7MiVSAHf1-56" value="Examlevel" style="ellipse;whiteSpace=wrap;html=1;align=center;" parent="1" vertex="1">
          <mxGeometry x="740" y="730" width="60" height="25" as="geometry" />
        </mxCell>
        <mxCell id="3fR_952DXuG7MiVSAHf1-57" value="document_year" style="ellipse;whiteSpace=wrap;html=1;align=center;" parent="1" vertex="1">
          <mxGeometry x="590" y="840" width="100" height="20" as="geometry" />
        </mxCell>
        <mxCell id="3fR_952DXuG7MiVSAHf1-58" value="year _level" style="ellipse;whiteSpace=wrap;html=1;align=center;" parent="1" vertex="1">
          <mxGeometry x="450" y="800" width="70" height="20" as="geometry" />
        </mxCell>
        <mxCell id="3fR_952DXuG7MiVSAHf1-59" value="file_type" style="ellipse;whiteSpace=wrap;html=1;align=center;" parent="1" vertex="1">
          <mxGeometry x="580" y="795" width="50" height="30" as="geometry" />
        </mxCell>
        <mxCell id="3fR_952DXuG7MiVSAHf1-60" value="description" style="ellipse;whiteSpace=wrap;html=1;align=center;" parent="1" vertex="1">
          <mxGeometry x="745" y="690" width="60" height="30" as="geometry" />
        </mxCell>
        <mxCell id="3fR_952DXuG7MiVSAHf1-61" value="title" style="ellipse;whiteSpace=wrap;html=1;align=center;" parent="1" vertex="1">
          <mxGeometry x="745" y="670" width="50" height="15" as="geometry" />
        </mxCell>
        <mxCell id="3fR_952DXuG7MiVSAHf1-63" value="department" style="ellipse;whiteSpace=wrap;html=1;align=center;" parent="1" vertex="1">
          <mxGeometry x="640" y="620" width="80" height="20" as="geometry" />
        </mxCell>
        <mxCell id="3fR_952DXuG7MiVSAHf1-64" value="program" style="ellipse;whiteSpace=wrap;html=1;align=center;" parent="1" vertex="1">
          <mxGeometry x="710" y="810" width="60" height="20" as="geometry" />
        </mxCell>
        <mxCell id="3fR_952DXuG7MiVSAHf1-65" value="course" style="ellipse;whiteSpace=wrap;html=1;align=center;" parent="1" vertex="1">
          <mxGeometry x="510" y="640" width="50" height="20" as="geometry" />
        </mxCell>
        <mxCell id="3fR_952DXuG7MiVSAHf1-66" value="links" style="ellipse;whiteSpace=wrap;html=1;align=center;" parent="1" vertex="1">
          <mxGeometry x="730" y="770" width="40" height="20" as="geometry" />
        </mxCell>
        <mxCell id="3fR_952DXuG7MiVSAHf1-67" value="status" style="ellipse;whiteSpace=wrap;html=1;align=center;" parent="1" vertex="1">
          <mxGeometry x="515" y="820" width="55" height="20" as="geometry" />
        </mxCell>
        <mxCell id="3fR_952DXuG7MiVSAHf1-68" value="file_path" style="ellipse;whiteSpace=wrap;html=1;align=center;" parent="1" vertex="1">
          <mxGeometry x="432.5" y="725" width="60" height="20" as="geometry" />
        </mxCell>
        <mxCell id="3fR_952DXuG7MiVSAHf1-69" value="created_at" style="ellipse;whiteSpace=wrap;html=1;align=center;" parent="1" vertex="1">
          <mxGeometry x="435" y="690" width="70" height="30" as="geometry" />
        </mxCell>
        <mxCell id="3fR_952DXuG7MiVSAHf1-70" value="updated_at" style="ellipse;whiteSpace=wrap;html=1;align=center;" parent="1" vertex="1">
          <mxGeometry x="460" y="665" width="70" height="20" as="geometry" />
        </mxCell>
        <mxCell id="3fR_952DXuG7MiVSAHf1-71" value="" style="endArrow=none;html=1;rounded=0;entryX=0.5;entryY=1;entryDx=0;entryDy=0;exitX=1;exitY=0;exitDx=0;exitDy=0;" parent="1" source="3fR_952DXuG7MiVSAHf1-4" target="3fR_952DXuG7MiVSAHf1-54" edge="1">
          <mxGeometry relative="1" as="geometry">
            <mxPoint x="670" y="720" as="sourcePoint" />
            <mxPoint x="752.8571428571429" y="670" as="targetPoint" />
          </mxGeometry>
        </mxCell>
        <mxCell id="3fR_952DXuG7MiVSAHf1-72" value="" style="endArrow=none;html=1;rounded=0;entryX=0;entryY=0.5;entryDx=0;entryDy=0;exitX=1;exitY=0.25;exitDx=0;exitDy=0;" parent="1" source="3fR_952DXuG7MiVSAHf1-4" target="3fR_952DXuG7MiVSAHf1-61" edge="1">
          <mxGeometry relative="1" as="geometry">
            <mxPoint x="670" y="738" as="sourcePoint" />
            <mxPoint x="700" y="774.66" as="targetPoint" />
          </mxGeometry>
        </mxCell>
        <mxCell id="3fR_952DXuG7MiVSAHf1-74" value="" style="endArrow=none;html=1;rounded=0;entryX=0.5;entryY=0;entryDx=0;entryDy=0;exitX=0.5;exitY=1;exitDx=0;exitDy=0;" parent="1" source="3fR_952DXuG7MiVSAHf1-4" target="3fR_952DXuG7MiVSAHf1-59" edge="1">
          <mxGeometry relative="1" as="geometry">
            <mxPoint x="300" y="690" as="sourcePoint" />
            <mxPoint x="460" y="690" as="targetPoint" />
          </mxGeometry>
        </mxCell>
        <mxCell id="3fR_952DXuG7MiVSAHf1-75" value="" style="endArrow=none;html=1;rounded=0;entryX=0.5;entryY=0;entryDx=0;entryDy=0;exitX=0.75;exitY=1;exitDx=0;exitDy=0;" parent="1" source="3fR_952DXuG7MiVSAHf1-4" target="3fR_952DXuG7MiVSAHf1-55" edge="1">
          <mxGeometry relative="1" as="geometry">
            <mxPoint x="510" y="784.8" as="sourcePoint" />
            <mxPoint x="670" y="784.8" as="targetPoint" />
          </mxGeometry>
        </mxCell>
        <mxCell id="3fR_952DXuG7MiVSAHf1-76" value="" style="endArrow=none;html=1;rounded=0;entryX=0;entryY=0.5;entryDx=0;entryDy=0;exitX=1;exitY=0.75;exitDx=0;exitDy=0;" parent="1" source="3fR_952DXuG7MiVSAHf1-4" target="3fR_952DXuG7MiVSAHf1-56" edge="1">
          <mxGeometry relative="1" as="geometry">
            <mxPoint x="710" y="740" as="sourcePoint" />
            <mxPoint x="870" y="739" as="targetPoint" />
          </mxGeometry>
        </mxCell>
        <mxCell id="3fR_952DXuG7MiVSAHf1-77" value="" style="endArrow=none;html=1;rounded=0;entryX=0.5;entryY=1;entryDx=0;entryDy=0;exitX=0.75;exitY=0;exitDx=0;exitDy=0;" parent="1" source="3fR_952DXuG7MiVSAHf1-4" target="3fR_952DXuG7MiVSAHf1-63" edge="1">
          <mxGeometry relative="1" as="geometry">
            <mxPoint x="620" y="690" as="sourcePoint" />
            <mxPoint x="620" y="652.5" as="targetPoint" />
          </mxGeometry>
        </mxCell>
        <mxCell id="3fR_952DXuG7MiVSAHf1-78" value="" style="endArrow=none;html=1;rounded=0;entryX=0;entryY=0.5;entryDx=0;entryDy=0;exitX=1;exitY=1;exitDx=0;exitDy=0;" parent="1" source="3fR_952DXuG7MiVSAHf1-4" target="3fR_952DXuG7MiVSAHf1-66" edge="1">
          <mxGeometry relative="1" as="geometry">
            <mxPoint x="670" y="760" as="sourcePoint" />
            <mxPoint x="480" y="710" as="targetPoint" />
          </mxGeometry>
        </mxCell>
        <mxCell id="3fR_952DXuG7MiVSAHf1-79" value="" style="endArrow=none;html=1;rounded=0;entryX=0.5;entryY=0;entryDx=0;entryDy=0;exitX=0.5;exitY=1;exitDx=0;exitDy=0;" parent="1" source="3fR_952DXuG7MiVSAHf1-4" target="3fR_952DXuG7MiVSAHf1-57" edge="1">
          <mxGeometry relative="1" as="geometry">
            <mxPoint x="640" y="760" as="sourcePoint" />
            <mxPoint x="490" y="720" as="targetPoint" />
          </mxGeometry>
        </mxCell>
        <mxCell id="3fR_952DXuG7MiVSAHf1-80" value="" style="endArrow=none;html=1;rounded=0;exitX=0.5;exitY=0;exitDx=0;exitDy=0;entryX=0.25;entryY=1;entryDx=0;entryDy=0;" parent="1" source="3fR_952DXuG7MiVSAHf1-58" target="3fR_952DXuG7MiVSAHf1-4" edge="1">
          <mxGeometry relative="1" as="geometry">
            <mxPoint x="340" y="730" as="sourcePoint" />
            <mxPoint x="570" y="780" as="targetPoint" />
          </mxGeometry>
        </mxCell>
        <mxCell id="3fR_952DXuG7MiVSAHf1-84" value="" style="endArrow=none;html=1;rounded=0;exitX=1;exitY=0.5;exitDx=0;exitDy=0;entryX=0;entryY=0;entryDx=0;entryDy=0;" parent="1" source="3fR_952DXuG7MiVSAHf1-70" target="3fR_952DXuG7MiVSAHf1-4" edge="1">
          <mxGeometry relative="1" as="geometry">
            <mxPoint x="405" y="742.16" as="sourcePoint" />
            <mxPoint x="565" y="742.16" as="targetPoint" />
          </mxGeometry>
        </mxCell>
        <mxCell id="3fR_952DXuG7MiVSAHf1-85" style="edgeStyle=orthogonalEdgeStyle;rounded=0;orthogonalLoop=1;jettySize=auto;html=1;exitX=0.5;exitY=1;exitDx=0;exitDy=0;" parent="1" source="3fR_952DXuG7MiVSAHf1-69" target="3fR_952DXuG7MiVSAHf1-69" edge="1">
          <mxGeometry relative="1" as="geometry" />
        </mxCell>
        <mxCell id="3fR_952DXuG7MiVSAHf1-90" value="" style="endArrow=none;html=1;rounded=0;entryX=0;entryY=0.25;entryDx=0;entryDy=0;exitX=1;exitY=0.5;exitDx=0;exitDy=0;" parent="1" source="3fR_952DXuG7MiVSAHf1-69" target="3fR_952DXuG7MiVSAHf1-4" edge="1">
          <mxGeometry relative="1" as="geometry">
            <mxPoint x="400" y="760" as="sourcePoint" />
            <mxPoint x="560" y="760" as="targetPoint" />
          </mxGeometry>
        </mxCell>
        <mxCell id="3fR_952DXuG7MiVSAHf1-91" value="" style="endArrow=none;html=1;rounded=0;entryX=0;entryY=0.5;entryDx=0;entryDy=0;exitX=1;exitY=0.5;exitDx=0;exitDy=0;" parent="1" source="3fR_952DXuG7MiVSAHf1-68" target="3fR_952DXuG7MiVSAHf1-4" edge="1">
          <mxGeometry relative="1" as="geometry">
            <mxPoint x="395.17" y="755" as="sourcePoint" />
            <mxPoint x="555.17" y="755" as="targetPoint" />
          </mxGeometry>
        </mxCell>
        <mxCell id="3fR_952DXuG7MiVSAHf1-93" value="" style="endArrow=none;html=1;rounded=0;entryX=0.5;entryY=1;entryDx=0;entryDy=0;exitX=0.5;exitY=0;exitDx=0;exitDy=0;" parent="1" source="3fR_952DXuG7MiVSAHf1-67" target="3fR_952DXuG7MiVSAHf1-4" edge="1">
          <mxGeometry relative="1" as="geometry">
            <mxPoint x="490" y="840" as="sourcePoint" />
            <mxPoint x="650" y="840" as="targetPoint" />
          </mxGeometry>
        </mxCell>
        <mxCell id="3fR_952DXuG7MiVSAHf1-94" value="" style="endArrow=none;html=1;rounded=0;exitX=0.75;exitY=1;exitDx=0;exitDy=0;" parent="1" source="3fR_952DXuG7MiVSAHf1-4" target="3fR_952DXuG7MiVSAHf1-64" edge="1">
          <mxGeometry relative="1" as="geometry">
            <mxPoint x="540" y="780" as="sourcePoint" />
            <mxPoint x="700" y="780" as="targetPoint" />
          </mxGeometry>
        </mxCell>
        <mxCell id="3fR_952DXuG7MiVSAHf1-96" value="commentid" style="ellipse;whiteSpace=wrap;html=1;align=center;fontStyle=4;" parent="1" vertex="1">
          <mxGeometry x="30" y="700" width="75" height="20" as="geometry" />
        </mxCell>
        <mxCell id="3fR_952DXuG7MiVSAHf1-97" value="content" style="ellipse;whiteSpace=wrap;html=1;align=center;" parent="1" vertex="1">
          <mxGeometry x="230" y="690" width="50" height="20" as="geometry" />
        </mxCell>
        <mxCell id="3fR_952DXuG7MiVSAHf1-98" value="updated_at" style="ellipse;whiteSpace=wrap;html=1;align=center;" parent="1" vertex="1">
          <mxGeometry x="60" y="795" width="70" height="30" as="geometry" />
        </mxCell>
        <mxCell id="3fR_952DXuG7MiVSAHf1-99" value="created_at" style="ellipse;whiteSpace=wrap;html=1;align=center;" parent="1" vertex="1">
          <mxGeometry x="200" y="810" width="60" height="30" as="geometry" />
        </mxCell>
        <mxCell id="3fR_952DXuG7MiVSAHf1-100" value="" style="endArrow=none;html=1;rounded=0;exitX=1;exitY=1;exitDx=0;exitDy=0;entryX=0;entryY=0.25;entryDx=0;entryDy=0;" parent="1" source="3fR_952DXuG7MiVSAHf1-96" target="3fR_952DXuG7MiVSAHf1-5" edge="1">
          <mxGeometry relative="1" as="geometry">
            <mxPoint y="720" as="sourcePoint" />
            <mxPoint x="160" y="720" as="targetPoint" />
          </mxGeometry>
        </mxCell>
        <mxCell id="3fR_952DXuG7MiVSAHf1-101" value="" style="endArrow=none;html=1;rounded=0;exitX=0.5;exitY=0;exitDx=0;exitDy=0;entryX=0;entryY=0.75;entryDx=0;entryDy=0;" parent="1" source="3fR_952DXuG7MiVSAHf1-98" target="3fR_952DXuG7MiVSAHf1-5" edge="1">
          <mxGeometry relative="1" as="geometry">
            <mxPoint x="20" y="780" as="sourcePoint" />
            <mxPoint x="180" y="780" as="targetPoint" />
          </mxGeometry>
        </mxCell>
        <mxCell id="3fR_952DXuG7MiVSAHf1-102" value="" style="endArrow=none;html=1;rounded=0;entryX=0.5;entryY=0;entryDx=0;entryDy=0;exitX=0.75;exitY=1;exitDx=0;exitDy=0;" parent="1" source="3fR_952DXuG7MiVSAHf1-5" target="3fR_952DXuG7MiVSAHf1-99" edge="1">
          <mxGeometry relative="1" as="geometry">
            <mxPoint x="225" y="720" as="sourcePoint" />
            <mxPoint x="385" y="720" as="targetPoint" />
          </mxGeometry>
        </mxCell>
        <mxCell id="3fR_952DXuG7MiVSAHf1-103" value="" style="endArrow=none;html=1;rounded=0;exitX=0.5;exitY=1;exitDx=0;exitDy=0;entryX=1;entryY=0.25;entryDx=0;entryDy=0;" parent="1" source="3fR_952DXuG7MiVSAHf1-97" target="3fR_952DXuG7MiVSAHf1-5" edge="1">
          <mxGeometry relative="1" as="geometry">
            <mxPoint x="170" y="709.66" as="sourcePoint" />
            <mxPoint x="330" y="709.66" as="targetPoint" />
          </mxGeometry>
        </mxCell>
        <mxCell id="3fR_952DXuG7MiVSAHf1-105" value="should_have" style="rhombus;whiteSpace=wrap;html=1;" parent="1" vertex="1">
          <mxGeometry x="375" y="215" width="80" height="80" as="geometry" />
        </mxCell>
        <mxCell id="3fR_952DXuG7MiVSAHf1-106" value="" style="fontSize=12;html=1;endArrow=ERmandOne;rounded=0;entryX=0.5;entryY=0;entryDx=0;entryDy=0;exitX=0.5;exitY=1;exitDx=0;exitDy=0;" parent="1" source="3fR_952DXuG7MiVSAHf1-105" target="3fR_952DXuG7MiVSAHf1-3" edge="1">
          <mxGeometry width="100" height="100" relative="1" as="geometry">
            <mxPoint x="460" y="285" as="sourcePoint" />
            <mxPoint x="560" y="185" as="targetPoint" />
          </mxGeometry>
        </mxCell>
        <mxCell id="3fR_952DXuG7MiVSAHf1-107" value="" style="edgeStyle=entityRelationEdgeStyle;fontSize=12;html=1;endArrow=ERmandOne;startArrow=ERmandOne;rounded=0;entryX=0;entryY=0.75;entryDx=0;entryDy=0;exitX=1;exitY=0.5;exitDx=0;exitDy=0;" parent="1" source="3fR_952DXuG7MiVSAHf1-105" target="3fR_952DXuG7MiVSAHf1-1" edge="1">
          <mxGeometry width="100" height="100" relative="1" as="geometry">
            <mxPoint x="512.5" y="295" as="sourcePoint" />
            <mxPoint x="592.5" y="12.5" as="targetPoint" />
          </mxGeometry>
        </mxCell>
        <mxCell id="3fR_952DXuG7MiVSAHf1-108" value="" style="edgeStyle=entityRelationEdgeStyle;fontSize=12;html=1;endArrow=ERmandOne;startArrow=ERmandOne;rounded=0;entryX=0;entryY=0.5;entryDx=0;entryDy=0;exitX=1;exitY=1;exitDx=0;exitDy=0;" parent="1" source="3fR_952DXuG7MiVSAHf1-2" target="3fR_952DXuG7MiVSAHf1-105" edge="1">
          <mxGeometry width="100" height="100" relative="1" as="geometry">
            <mxPoint x="240" y="222" as="sourcePoint" />
            <mxPoint x="375" y="155" as="targetPoint" />
          </mxGeometry>
        </mxCell>
        <mxCell id="3fR_952DXuG7MiVSAHf1-109" value="can make" style="rhombus;whiteSpace=wrap;html=1;rotation=0;" parent="1" vertex="1">
          <mxGeometry x="595" y="470" width="70" height="65" as="geometry" />
        </mxCell>
        <mxCell id="3fR_952DXuG7MiVSAHf1-110" value="can make" style="rhombus;whiteSpace=wrap;html=1;" parent="1" vertex="1">
          <mxGeometry x="130" y="480" width="70" height="65" as="geometry" />
        </mxCell>
        <mxCell id="3fR_952DXuG7MiVSAHf1-112" value="" style="fontSize=12;html=1;endArrow=ERone;endFill=1;rounded=0;entryX=1;entryY=0.5;entryDx=0;entryDy=0;exitX=0.5;exitY=0;exitDx=0;exitDy=0;" parent="1" source="3fR_952DXuG7MiVSAHf1-109" target="3fR_952DXuG7MiVSAHf1-3" edge="1">
          <mxGeometry width="100" height="100" relative="1" as="geometry">
            <mxPoint x="340" y="605" as="sourcePoint" />
            <mxPoint x="630" y="320" as="targetPoint" />
            <Array as="points">
              <mxPoint x="630" y="385" />
            </Array>
          </mxGeometry>
        </mxCell>
        <mxCell id="3fR_952DXuG7MiVSAHf1-114" value="" style="fontSize=12;html=1;endArrow=ERoneToMany;rounded=0;exitX=0.5;exitY=1;exitDx=0;exitDy=0;entryX=0.5;entryY=0;entryDx=0;entryDy=0;" parent="1" source="3fR_952DXuG7MiVSAHf1-109" target="3fR_952DXuG7MiVSAHf1-4" edge="1">
          <mxGeometry width="100" height="100" relative="1" as="geometry">
            <mxPoint x="562.5" y="630" as="sourcePoint" />
            <mxPoint x="630" y="685" as="targetPoint" />
          </mxGeometry>
        </mxCell>
        <mxCell id="3fR_952DXuG7MiVSAHf1-116" value="" style="fontSize=12;html=1;endArrow=ERone;endFill=1;rounded=0;exitX=0.5;exitY=0;exitDx=0;exitDy=0;entryX=0;entryY=0.5;entryDx=0;entryDy=0;" parent="1" source="3fR_952DXuG7MiVSAHf1-110" target="3fR_952DXuG7MiVSAHf1-3" edge="1">
          <mxGeometry width="100" height="100" relative="1" as="geometry">
            <mxPoint x="450" y="581" as="sourcePoint" />
            <mxPoint x="350" y="390" as="targetPoint" />
            <Array as="points">
              <mxPoint x="165" y="385" />
            </Array>
          </mxGeometry>
        </mxCell>
        <mxCell id="3fR_952DXuG7MiVSAHf1-117" value="" style="fontSize=12;html=1;endArrow=ERoneToMany;rounded=0;entryX=0.5;entryY=0;entryDx=0;entryDy=0;exitX=0.5;exitY=1;exitDx=0;exitDy=0;" parent="1" source="3fR_952DXuG7MiVSAHf1-110" target="3fR_952DXuG7MiVSAHf1-5" edge="1">
          <mxGeometry width="100" height="100" relative="1" as="geometry">
            <mxPoint x="350" y="755" as="sourcePoint" />
            <mxPoint x="215" y="765.0100000000001" as="targetPoint" />
          </mxGeometry>
        </mxCell>
        <mxCell id="3fR_952DXuG7MiVSAHf1-118" value="can make" style="rhombus;whiteSpace=wrap;html=1;" parent="1" vertex="1">
          <mxGeometry x="310" y="730" width="70" height="65" as="geometry" />
        </mxCell>
        <mxCell id="3fR_952DXuG7MiVSAHf1-119" value="" style="fontSize=12;html=1;endArrow=ERoneToMany;rounded=0;entryX=1;entryY=0.5;entryDx=0;entryDy=0;exitX=0;exitY=0.5;exitDx=0;exitDy=0;" parent="1" source="3fR_952DXuG7MiVSAHf1-118" target="3fR_952DXuG7MiVSAHf1-5" edge="1">
          <mxGeometry width="100" height="100" relative="1" as="geometry">
            <mxPoint x="365" y="630" as="sourcePoint" />
            <mxPoint x="175" y="755" as="targetPoint" />
            <Array as="points" />
          </mxGeometry>
        </mxCell>
        <mxCell id="3fR_952DXuG7MiVSAHf1-120" value="" style="fontSize=12;html=1;endArrow=ERone;endFill=1;rounded=0;entryX=0;entryY=0.75;entryDx=0;entryDy=0;exitX=1;exitY=0.5;exitDx=0;exitDy=0;" parent="1" source="3fR_952DXuG7MiVSAHf1-118" target="3fR_952DXuG7MiVSAHf1-4" edge="1">
          <mxGeometry width="100" height="100" relative="1" as="geometry">
            <mxPoint x="400" y="765" as="sourcePoint" />
            <mxPoint x="460" y="765" as="targetPoint" />
            <Array as="points" />
          </mxGeometry>
        </mxCell>
      </root>
    </mxGraphModel>
  </diagram>
</mxfile>
